<?xml version="1.0" standalone="no"?>
<!DOCTYPE svg PUBLIC "-//W3C//DTD SVG 20010904//EN"
 "http://www.w3.org/TR/2001/REC-SVG-20010904/DTD/svg10.dtd">
<svg version="1.0" xmlns="http://www.w3.org/2000/svg"
 width="711.000000pt" height="711.000000pt" viewBox="0 0 711.000000 711.000000"
 preserveAspectRatio="xMidYMid meet">
<metadata>
Created by potrace 1.11, written by Peter Selinger 2001-2013
</metadata>
<g transform="translate(0.000000,711.000000) scale(0.100000,-0.100000)"
fill="#000000" stroke="none">
<path d="M3547 7102 c-3 -4 -31 -56 -62 -117 -32 -60 -80 -148 -107 -194 -26
-46 -48 -86 -48 -88 0 -4 -81 -135 -148 -238 -25 -38 -49 -71 -54 -73 -4 -2
-8 -8 -8 -13 0 -24 -223 -315 -394 -513 -172 -201 -448 -476 -696 -692 -24
-21 -54 -47 -65 -58 -39 -35 -401 -323 -525 -417 -69 -51 -130 -98 -136 -104
-6 -5 -38 -32 -70 -59 -88 -74 -281 -270 -356 -361 -58 -71 -198 -268 -198
-279 0 -2 -15 -30 -33 -63 -133 -237 -208 -511 -209 -773 -2 -567 322 -1079
850 -1344 257 -129 494 -183 794 -179 338 3 703 116 1019 315 l85 54 -13 -75
c-28 -163 -107 -440 -158 -556 -7 -16 -26 -59 -41 -95 -72 -167 -212 -398
-324 -535 -114 -139 -271 -283 -391 -359 l-45 -29 0 -128 0 -129 1338 0 1338
0 0 129 c0 98 -3 130 -13 134 -19 7 -205 150 -247 189 -351 331 -626 879 -706
1403 -3 22 -8 44 -11 48 -3 4 28 -13 69 -39 144 -93 340 -186 503 -239 323
-105 689 -118 1001 -35 460 123 839 429 1033 835 122 255 162 483 136 784 -27
317 -197 688 -455 996 -57 69 -301 306 -375 366 -44 36 -163 129 -265 206
-480 367 -885 740 -1194 1098 -38 44 -79 92 -92 107 -57 66 -248 323 -321 433
-79 118 -223 351 -223 359 0 3 -15 31 -34 63 -18 32 -58 106 -89 165 -31 59
-58 104 -60 100z"/>
</g>
</svg>
